<svg width="40" height="40" viewBox="0 0 40 40" fill="none" xmlns="http://www.w3.org/2000/svg">
<circle cx="20" cy="20" r="19.5" fill="white" stroke="#003595"/>
<path d="M29.4424 12.5786C29.431 12.5677 27.1757 10.373 27.1757 10.373C27.0895 10.2885 27.0003 10.2013 26.8338 10.2013H17.7543C17.4891 10.2013 17.2733 10.4214 17.2733 10.692V12.1991L14.0733 12.7588C13.8168 12.8047 13.6443 13.0552 13.6887 13.3167L13.8511 14.2829C12.811 14.6401 11.7431 15.0083 10.7122 15.3862C10.4686 15.4771 10.3407 15.7534 10.4277 16.0035L14.4784 27.5347C14.5196 27.6518 14.6277 27.7247 14.743 27.7247C14.7746 27.7247 14.8068 27.7192 14.8382 27.7077C14.9844 27.654 15.0602 27.4896 15.0077 27.3405L10.9873 15.8953C11.9586 15.5404 12.9644 15.1931 13.9474 14.8555L14.9138 20.6047L16.0258 27.2258C16.066 27.4595 16.2673 27.6258 16.4946 27.6258C16.5203 27.6258 16.5464 27.6237 16.5726 27.6193L19.5844 27.0919L21.9379 26.6802L18.3983 27.9785L15.6069 29.0026L13.4391 22.8499C13.3866 22.7008 13.2255 22.6233 13.0793 22.677C12.9332 22.7306 12.8573 22.8949 12.9098 23.0441L15.1084 29.2842C15.1787 29.4804 15.3609 29.6024 15.5534 29.6024C15.6066 29.6024 15.6607 29.5931 15.7133 29.5734L18.5885 28.5186L25.117 26.1242L26.3642 25.906H29.1194C29.3846 25.906 29.6004 25.6854 29.6004 25.4142V12.902C29.6004 12.7302 29.5091 12.6426 29.4424 12.5786ZM28.6972 12.6466H27.2899L27.255 12.6467C27.1876 12.6472 27.0298 12.6484 26.9898 12.6078C26.9806 12.5984 26.9698 12.5671 26.9698 12.509L26.9665 10.9625L28.6972 12.6466ZM29.0379 25.332H17.8358V19.7389C17.8358 19.5804 17.7099 19.4519 17.5546 19.4519C17.3993 19.4519 17.2733 19.5804 17.2733 19.7389V25.4141C17.2733 25.6853 17.4891 25.906 17.7543 25.906H23.0348L19.4893 26.5261L16.565 27.0382L15.4682 20.5076L14.2581 13.3088L17.2733 12.7814V20.0399C17.2733 20.1984 17.3992 20.3269 17.5545 20.3269C17.7099 20.3269 17.8358 20.1984 17.8358 20.0399V10.7752H26.4036L26.4073 12.5097C26.4073 12.7199 26.47 12.8899 26.5935 13.0151C26.7834 13.2075 27.0518 13.2209 27.2184 13.2209C27.2327 13.2209 27.2463 13.2208 27.259 13.2207L29.0379 13.2206V25.332Z" fill="#003595" stroke="#003595" stroke-width="0.5"/>
<path d="M19.1914 14.6575C19.1914 14.816 19.3173 14.9445 19.4727 14.9445H27.514C27.6693 14.9445 27.7953 14.816 27.7953 14.6575C27.7953 14.499 27.6693 14.3705 27.514 14.3705H19.4727C19.3173 14.3705 19.1914 14.499 19.1914 14.6575Z" fill="#003595" stroke="#003595" stroke-width="0.5"/>
<path d="M27.514 16.4094H19.4727C19.3173 16.4094 19.1914 16.5379 19.1914 16.6964C19.1914 16.8549 19.3173 16.9834 19.4727 16.9834H27.514C27.6693 16.9834 27.7953 16.8549 27.7953 16.6964C27.7953 16.5379 27.6693 16.4094 27.514 16.4094Z" fill="#003595" stroke="#003595" stroke-width="0.5"/>
<path d="M27.514 18.4482H19.4727C19.3173 18.4482 19.1914 18.5767 19.1914 18.7352C19.1914 18.8937 19.3173 19.0222 19.4727 19.0222H27.514C27.6693 19.0222 27.7953 18.8937 27.7953 18.7352C27.7953 18.5767 27.6693 18.4482 27.514 18.4482Z" fill="#003595" stroke="#003595" stroke-width="0.5"/>
<path d="M27.514 20.4871H19.4727C19.3173 20.4871 19.1914 20.6156 19.1914 20.7741C19.1914 20.9325 19.3173 21.061 19.4727 21.061H27.514C27.6693 21.061 27.7953 20.9325 27.7953 20.7741C27.7953 20.6156 27.6693 20.4871 27.514 20.4871Z" fill="#003595" stroke="#003595" stroke-width="0.5"/>
<path d="M27.514 22.526H19.4727C19.3173 22.526 19.1914 22.6545 19.1914 22.813C19.1914 22.9715 19.3173 23.1 19.4727 23.1H27.514C27.6693 23.1 27.7953 22.9715 27.7953 22.813C27.7953 22.6545 27.6693 22.526 27.514 22.526Z" fill="#003595" stroke="#003595" stroke-width="0.5"/>
</svg>
