<svg width="60" height="60" viewBox="0 0 60 60" fill="none" xmlns="http://www.w3.org/2000/svg">
<path fill-rule="evenodd" clip-rule="evenodd" d="M44.9807 7.03762L46.1951 2.50943C46.3627 1.88412 47.0054 1.51333 47.6302 1.68087C48.2555 1.84841 48.6263 2.49111 48.4588 3.11642L47.2448 7.64462C47.0768 8.27038 46.4341 8.64025 45.8092 8.47317C45.1839 8.30517 44.8131 7.66293 44.9807 7.03762ZM17.1496 56.0722L11.2481 45.8499C7.53935 47.3349 3.17137 45.9232 1.09953 42.3343C-1.16823 38.4094 0.187665 33.3878 4.102 31.1287L14.0542 25.3828L29.3628 5.8812C30.0137 4.86267 31.1123 4.26025 32.3227 4.26025C32.3378 4.26025 32.3524 4.26025 32.3675 4.26071C33.62 4.27628 34.742 4.93317 35.3682 6.01807L39.6918 13.5071L44.2003 13.2365C44.642 13.2104 45.0636 13.4357 45.2856 13.8202L47.6294 17.8796C47.8514 18.2642 47.8367 18.7407 47.5923 19.1115L45.1034 22.8812L48.9981 29.6268C50.3137 31.9041 48.7532 34.7528 46.1485 34.8943L45.8825 34.9464C25.0689 39.0294 23.8835 39.2619 23.7025 39.297L25.2264 41.9365C25.5501 42.4968 25.3578 43.2132 24.7975 43.5373L21.7529 45.2951L25.2685 51.3852C26.5654 53.6287 25.795 56.4929 23.5533 57.7884C21.2878 59.0981 18.4231 58.2805 17.1496 56.0722ZM19.4092 41.2352L20.581 43.2649L22.6108 42.093L21.4389 40.0633L19.4092 41.2352ZM45.2376 18.4244L43.618 15.6192L41.0019 15.7762L43.7933 20.6116L45.2376 18.4244ZM32.3387 6.604C32.1364 6.59851 31.6374 6.65161 31.3229 7.16614C31.2835 7.23087 31.2531 7.26927 31.1509 7.39869C31.0977 7.46603 31.025 7.55802 30.9215 7.69119L45.3396 32.6645C45.4727 32.6396 45.5703 32.6198 45.6469 32.6043C45.8059 32.572 45.8745 32.558 45.9823 32.5555C46.8727 32.5336 47.4124 31.5672 46.9684 30.7986L33.338 7.18948C33.0372 6.66855 32.5387 6.60629 32.3387 6.604ZM42.9085 33.1415L29.3619 9.67789L16.2474 26.3844L22.4638 37.1515L42.9085 33.1415ZM2.34282 38.2387C2.34282 39.2613 2.61473 40.2721 3.12925 41.1624C4.7447 43.9603 8.33494 44.9225 11.1333 43.3075L20.267 38.0336L14.4076 27.885L5.27388 33.1584C3.46617 34.2021 2.34282 36.1485 2.34282 38.2387ZM51.7282 10.4006L58.2582 6.76691C58.8236 6.45197 59.5372 6.65522 59.8517 7.22101C60.1666 7.78635 59.9634 8.5 59.3976 8.81494L52.8681 12.4487C52.3014 12.7641 51.5882 12.5595 51.2741 11.9946C50.9592 11.4292 51.1629 10.7156 51.7282 10.4006ZM57.5728 18.9042L53.0451 17.6911C52.4198 17.5236 51.7771 17.8944 51.6096 18.5197C51.442 19.145 51.8133 19.7872 52.4386 19.9548L56.9668 21.1678C57.5957 21.3368 58.2352 20.96 58.4019 20.3393C58.5694 19.714 58.1982 19.0713 57.5728 18.9042Z" fill="#003595"/>
</svg> 
