<svg width="60" height="60" viewBox="0 0 60 60" fill="none" xmlns="http://www.w3.org/2000/svg">
<path fill-rule="evenodd" clip-rule="evenodd" d="M58.617 12.0601C58.7311 9.27374 56.5648 6.92246 53.7785 6.80825L53.4311 6.80603L53.4226 6.80615H48.4961V2.53018C48.4961 1.84184 48.1716 1.2937 47.6583 0.908736C47.1392 0.519413 46.4277 0.300049 45.6877 0.300049H41.4227C40.6851 0.300049 40.0744 0.517639 39.6521 0.892957C39.234 1.26461 38.9757 1.81263 38.9757 2.53021V6.80601H21.0263V2.53021C21.0263 1.81263 20.768 1.26461 20.3499 0.892956C19.9277 0.517639 19.3169 0.300049 18.5793 0.300049H14.3142C13.5742 0.300049 12.8628 0.51941 12.3437 0.908736C11.8304 1.29371 11.5058 1.84186 11.5058 2.53021V6.80601L6.57105 6.80589C3.78339 6.72818 1.46055 8.92522 1.38284 11.7127C1.37958 11.8283 1.38036 11.9443 1.38507 12.0602L1.38531 12.0723V53.8554C1.38531 56.9155 3.60592 59.6999 6.57927 59.6999H53.4228C56.3961 59.6999 58.6167 56.9155 58.6167 53.8554L58.617 12.0601ZM56.3251 53.8554V22.8326H3.67702V53.8554C3.67702 54.7096 3.94765 55.5862 4.44013 56.256C4.9352 56.9293 5.66843 57.4083 6.57941 57.4083H53.4228C54.3337 57.4083 55.067 56.9293 55.562 56.256C56.0545 55.5862 56.3251 54.7096 56.3251 53.8554ZM11.5058 9.09772H6.58842C6.45108 9.08956 6.31307 9.09162 6.17581 9.10406C4.66362 9.24106 3.54754 10.5744 3.67688 12.0855V20.541H56.3251V12.0855C56.3368 11.9496 56.3382 11.813 56.3297 11.6771C56.2341 10.1602 54.9296 9.00729 53.4136 9.09758H48.4962V10.988C48.4962 12.3669 47.1623 13.4349 45.6878 13.4349L41.4227 13.4348L41.4142 13.4351C41.371 13.4363 41.3276 13.4363 41.2844 13.435C39.9733 13.3991 38.9397 12.3072 38.9757 10.9962V9.09758H21.0263L21.0262 10.9881L21.0264 10.9966C21.0276 11.0398 21.0276 11.0832 21.0264 11.1264C20.9904 12.4375 19.8985 13.4711 18.5876 13.4351H14.3142C12.8397 13.4351 11.5058 12.367 11.5058 10.9881V9.09772ZM28.8148 30.3256C29.2056 29.2011 30.7958 29.2011 31.1867 30.3256L32.6536 34.5456C32.9084 35.2787 33.5925 35.7757 34.3685 35.7915L38.8352 35.8825C40.0254 35.9068 40.5168 37.4192 39.5682 38.1384L36.008 40.8375C35.3895 41.3064 35.1282 42.1106 35.353 42.8535L36.6467 47.1297C36.9914 48.2691 35.7049 49.2038 34.7278 48.5239L31.0606 45.972C30.4236 45.5288 29.5779 45.5288 28.9409 45.972L25.2737 48.5239C24.2966 49.2038 23.0101 48.2691 23.3548 47.1297L24.6485 42.8535C24.8733 42.1106 24.6119 41.3064 23.9935 40.8375L20.4333 38.1384C19.4847 37.4192 19.9761 35.9068 21.1663 35.8825L25.633 35.7915C26.409 35.7757 27.0931 35.2787 27.3479 34.5456L28.8148 30.3256Z" fill="#003595"/>
</svg>
