<svg width="60" height="60" viewBox="0 0 60 60" fill="none" xmlns="http://www.w3.org/2000/svg">
<path fill-rule="evenodd" clip-rule="evenodd" d="M12.4244 39.9693V28.291L2.30917 23.9078C1.29797 23.4697 1.29798 22.029 2.30921 21.5908L29.4987 9.8087C29.8191 9.66988 30.1825 9.66989 30.5029 9.8087L57.6924 21.5908C58.7036 22.029 58.7035 23.4698 57.6924 23.9079L53.015 25.9347V47.2198C53.015 47.9171 52.4497 48.4825 51.7524 48.4825C51.0551 48.4825 50.4898 47.9171 50.4898 47.2198V27.0289L47.5771 28.291V39.9693C47.5771 42.7549 45.759 45.3227 42.5926 47.2226C39.433 49.1183 35.0036 50.2951 30.0008 50.2951C24.9979 50.2951 20.5686 49.1183 17.409 47.2226C14.2425 45.3227 12.4244 42.7549 12.4244 39.9693ZM54.0147 22.7494L30.0008 12.3433L5.9869 22.7493L30.0008 33.1554L46.3594 26.0666L29.8441 24.0022C29.1522 23.9157 28.6614 23.2846 28.7478 22.5927C28.8343 21.9013 29.4652 21.4106 30.1578 21.4965L50.9174 24.0915L54.0147 22.7494ZM29.4987 35.69L14.9497 29.3855V39.9694C14.9497 41.9823 16.577 43.8845 19.0785 45.2742C22.1003 46.953 26.0712 47.7736 30.0073 47.7724C33.9435 47.7711 37.9099 46.9482 40.9231 45.2742C43.4246 43.8845 45.0519 41.9823 45.0519 39.9694V29.3855L30.5029 35.69C30.1819 35.8291 29.8185 35.8286 29.4987 35.69Z" fill="#003595"/>
</svg>
