<svg width="60" height="60" viewBox="0 0 60 60" fill="none" xmlns="http://www.w3.org/2000/svg">
<path fill-rule="evenodd" clip-rule="evenodd" d="M4.1895 29.1058L3.8741 29.625L4.1895 30.1442C9.68777 39.1951 18.8941 46.5625 29.9999 46.5625C41.0435 46.5625 50.2861 39.2375 55.8104 30.1442L56.1258 29.625L55.8104 29.1058C50.3434 20.1068 41.1496 12.6875 29.9999 12.6875C18.8029 12.6875 9.62596 20.1566 4.1895 29.1058ZM29.9999 10C42.5763 10 53.7193 19.0041 58.8519 29.0119C59.0492 29.3968 59.0492 29.8532 58.8519 30.2381C54.8575 38.0267 44.2447 49.25 29.9999 49.25C17.4236 49.25 6.2806 40.2459 1.14807 30.2383C0.950631 29.8532 0.950667 29.3967 1.14804 29.0119C6.22412 19.1141 17.3352 10 29.9999 10ZM19.4863 29.625C19.4863 23.8287 24.2036 19.1113 29.9999 19.1113C35.7963 19.1113 40.5136 23.8287 40.5136 29.625C40.5136 35.4213 35.7963 40.1387 29.9999 40.1387C24.2036 40.1387 19.4863 35.4213 19.4863 29.625Z" fill="#003595"/>
</svg>
