<svg width="60" height="53" viewBox="0 0 60 53" fill="none" xmlns="http://www.w3.org/2000/svg">
<path fill-rule="evenodd" clip-rule="evenodd" d="M33.9771 15H47.3301C48.2509 15 49 15.7667 49 16.709V38.291C49 39.2333 48.2509 40 47.3301 40H12.6699C11.7491 40 11 39.2333 11 38.291V16.709C11 15.7667 11.7491 15 12.6699 15H26.0229C27.4789 15 28.8916 15.5856 29.9384 16.6145C29.9869 16.6103 30.0131 16.6103 30.0615 16.6145C31.1084 15.5856 32.5211 15 33.9771 15ZM12.6699 38.5352H29.2839L29.2843 37.5208C29.2843 37.3254 29.2109 37.1375 29.0793 36.9959C29.0793 36.9959 29.0779 36.9944 29.0756 36.9917C29.0054 36.9096 27.9308 35.6543 26.0229 35.6543H12.4314V38.291C12.4314 38.4258 12.5382 38.5352 12.6699 38.5352ZM26.0229 34.1895C27.194 34.1895 28.337 34.5684 29.2843 35.2519V18.0271L29.0793 17.8065C28.2868 16.9539 27.1728 16.4648 26.0229 16.4648H12.6699C12.5384 16.4648 12.4314 16.5744 12.4314 16.709V34.1895H26.0229ZM47.3301 38.5352C47.4618 38.5352 47.5686 38.4258 47.5686 38.291V35.6543H33.9774C32.8219 35.6543 31.7171 36.1393 30.9207 36.996C30.7891 37.1376 30.7157 37.3255 30.7157 37.521L30.716 38.5352H47.3301ZM33.9771 34.1895H47.5686V16.709C47.5686 16.5744 47.4616 16.4648 47.3301 16.4648H33.9771C32.8272 16.4648 31.7132 16.9539 30.9207 17.8065L30.7157 18.0271V35.2519C31.663 34.5684 32.806 34.1895 33.9771 34.1895ZM26.7636 19.0039H14.9521C14.5569 19.0039 14.2365 19.3318 14.2365 19.7363C14.2365 20.1408 14.5569 20.4688 14.9521 20.4688H26.7635C27.1588 20.4688 27.4792 20.1408 27.4792 19.7363C27.4792 19.3318 27.1588 19.0039 26.7636 19.0039ZM26.7636 22.8125H14.9521C14.5569 22.8125 14.2365 23.1404 14.2365 23.5449C14.2365 23.9494 14.5569 24.2773 14.9521 24.2773H26.7635C27.1588 24.2773 27.4792 23.9494 27.4792 23.5449C27.4792 23.1404 27.1588 22.8125 26.7636 22.8125ZM14.9521 26.6209H26.7636C27.1588 26.6209 27.4792 26.9488 27.4792 27.3533C27.4792 27.7578 27.1588 28.0858 26.7635 28.0858H14.9521C14.5569 28.0858 14.2365 27.7578 14.2365 27.3533C14.2365 26.9488 14.5569 26.6209 14.9521 26.6209ZM26.7636 30.4295H14.9521C14.5569 30.4295 14.2365 30.7574 14.2365 31.1619C14.2365 31.5664 14.5569 31.8944 14.9521 31.8944H26.7635C27.1588 31.8944 27.4792 31.5664 27.4792 31.1619C27.4792 30.7574 27.1588 30.4295 26.7636 30.4295ZM33.2365 30.4295H45.0479C45.4431 30.4295 45.7635 30.7574 45.7635 31.1619C45.7635 31.5664 45.4431 31.8944 45.0478 31.8944H33.2365C32.8412 31.8944 32.5208 31.5664 32.5208 31.1619C32.5208 30.7574 32.8412 30.4295 33.2365 30.4295ZM45.0479 26.6209H33.2365C32.8412 26.6209 32.5208 26.9488 32.5208 27.3533C32.5208 27.7578 32.8412 28.0858 33.2365 28.0858H45.0478C45.4431 28.0858 45.7635 27.7578 45.7635 27.3533C45.7635 26.9488 45.4431 26.6209 45.0479 26.6209ZM33.2365 22.8125H45.0479C45.4431 22.8125 45.7635 23.1404 45.7635 23.5449C45.7635 23.9494 45.4431 24.2773 45.0478 24.2773H33.2365C32.8412 24.2773 32.5208 23.9494 32.5208 23.5449C32.5208 23.1404 32.8412 22.8125 33.2365 22.8125ZM45.0479 19.0039H33.2365C32.8412 19.0039 32.5208 19.3318 32.5208 19.7363C32.5208 20.1408 32.8412 20.4688 33.2365 20.4688H45.0478C45.4431 20.4688 45.7635 20.1408 45.7635 19.7363C45.7635 19.3318 45.4431 19.0039 45.0479 19.0039Z" fill="#003595"/>
<path d="M23.37 1.81155C23.5776 1.21451 24.4219 1.21451 24.6294 1.81155L25.2581 3.62013C25.3497 3.88351 25.5954 4.06209 25.8742 4.06777L27.7886 4.10678C28.4205 4.11966 28.6814 4.92269 28.1777 5.30456L26.6519 6.46133C26.4297 6.62979 26.3359 6.91874 26.4166 7.18563L26.9711 9.01832C27.1541 9.62332 26.471 10.1196 25.9522 9.75858L24.3805 8.66493C24.1516 8.50567 23.8478 8.50567 23.6189 8.66493L22.0473 9.75859C21.5285 10.1196 20.8454 9.62332 21.0284 9.01832L21.5829 7.18563C21.6636 6.91874 21.5697 6.62979 21.3475 6.46133L19.8217 5.30456C19.318 4.92269 19.579 4.11966 20.2109 4.10678L22.1252 4.06777C22.404 4.06209 22.6498 3.88351 22.7414 3.62013L23.37 1.81155Z" fill="#003595"/>
<path d="M35.37 1.81155C35.5776 1.21451 36.4219 1.21451 36.6294 1.81155L37.2581 3.62013C37.3497 3.88351 37.5954 4.06209 37.8742 4.06777L39.7886 4.10678C40.4205 4.11966 40.6814 4.92269 40.1777 5.30456L38.6519 6.46133C38.4297 6.62979 38.3359 6.91874 38.4166 7.18563L38.9711 9.01832C39.1541 9.62332 38.471 10.1196 37.9522 9.75858L36.3805 8.66493C36.1516 8.50567 35.8478 8.50567 35.6189 8.66493L34.0473 9.75859C33.5285 10.1196 32.8454 9.62332 33.0284 9.01832L33.5829 7.18563C33.6636 6.91874 33.5697 6.62979 33.3475 6.46133L31.8217 5.30456C31.318 4.92269 31.579 4.11966 32.2109 4.10678L34.1252 4.06777C34.404 4.06209 34.6498 3.88351 34.7414 3.62013L35.37 1.81155Z" fill="#003595"/>
<path fill-rule="evenodd" clip-rule="evenodd" d="M28 44H32V46H31L31 51H32V53H28V51H29L29 46L28 46V44Z" fill="#003595"/>
</svg>
