<svg width="60" height="60" viewBox="0 0 60 60" fill="none" xmlns="http://www.w3.org/2000/svg">
<path d="M58.837 12.0583C58.8331 12.0583 58.8291 12.0583 58.8254 12.0583H54.8827V10.7092C54.904 10.1752 54.5585 9.69531 54.0454 9.54615C51.3082 8.82886 48.4896 8.4692 45.66 8.47617C41.0079 8.47617 34.6695 9.52289 29.9826 14.2913C25.3305 9.47637 18.9455 8.47617 14.3051 8.47617C11.4755 8.4692 8.65691 8.82886 5.91975 9.54615C5.40657 9.69531 5.06116 10.1752 5.08238 10.7092V12.0466H1.16302C0.52074 12.0466 0 12.5674 0 13.2096V50.3564C0 50.9987 0.52074 51.5194 1.16302 51.5194C1.36276 51.5188 1.55902 51.4668 1.73289 51.3682C1.8492 51.3101 13.4794 44.9484 29.7151 49.0422H29.8895H29.9942C30.0869 49.0534 30.1806 49.0534 30.2733 49.0422C46.5555 44.9135 58.1857 51.2635 58.2555 51.3682C58.6153 51.576 59.0587 51.576 59.4185 51.3682C59.7761 51.1618 59.9975 50.781 60 50.368V13.2213C60 12.579 59.4794 12.0583 58.837 12.0583ZM13.712 41.8198C11.5966 41.8246 9.48367 41.9606 7.38515 42.2269V11.6279C9.64954 11.1235 11.9619 10.866 14.2818 10.8604C18.6315 10.8604 24.6327 11.8606 28.7963 16.5591L28.8312 45.5299C26.4121 43.9482 21.6903 41.8198 13.712 41.8198ZM31.1572 16.5591C35.3208 11.9071 41.322 10.8604 45.6716 10.8604C47.9914 10.8672 50.3038 11.1245 52.5683 11.6279V42.2269C50.4816 41.9581 48.3803 41.8183 46.2764 41.8082C38.3446 41.8082 33.6112 43.9365 31.1572 45.5182V16.5591Z" fill="#003595"/>
</svg>
