<svg width="60" height="60" viewBox="0 0 60 60" fill="none" xmlns="http://www.w3.org/2000/svg">
<path d="M55.1038 1.76025H4.89624C3.23027 1.76025 1.875 3.16253 1.875 4.88627V45.7282C1.875 47.452 3.23027 48.8542 4.89624 48.8542H23.7746C24.2297 48.8542 24.5986 48.4725 24.5986 48.0017C24.5986 47.5309 24.2297 47.1491 23.7746 47.1491H4.89624C4.13895 47.1491 3.52295 46.5118 3.52295 45.7282V43.9853H56.4771V45.7282C56.4771 46.5118 55.861 47.1491 55.1038 47.1491H22.167C21.7119 47.1491 21.343 47.5309 21.343 48.0017C21.343 48.4725 21.7119 48.8542 22.167 48.8542H26.1639L25.4435 52.1014H24.1958C22.0604 52.1014 20.3231 53.899 20.3231 56.1084V56.3358C20.3231 57.3857 21.1486 58.2398 22.1633 58.2398H37.8365C38.8512 58.2398 39.6768 57.3857 39.6768 56.3358V56.1084C39.6768 53.899 37.9395 52.1014 35.8041 52.1014H34.5564L33.836 48.8542H55.1038C56.7697 48.8542 58.125 47.452 58.125 45.7282V4.88627C58.125 3.16253 56.7697 1.76025 55.1038 1.76025ZM38.0289 56.1084V56.3358C38.0289 56.4455 37.9427 56.5347 37.8367 56.5347H22.1633C22.0573 56.5347 21.9711 56.4455 21.9711 56.3358V56.1084C21.9711 54.8391 22.9691 53.8065 24.1958 53.8065H26.0977L26.1005 53.8067L26.1024 53.8065H33.8974L33.8993 53.8067L33.9021 53.8065H35.804C37.0309 53.8065 38.0289 54.8391 38.0289 56.1084ZM32.8656 52.1014H27.1343L27.8547 48.8542H32.1452L32.8656 52.1014ZM3.52295 42.2801V4.88627C3.52295 4.10272 4.13895 3.46535 4.89624 3.46535H55.1038C55.861 3.46535 56.4771 4.10272 56.4771 4.88627V42.2802L3.52295 42.2801Z" fill="#003595" stroke="#003595"/>
<path d="M31.6037 6.99146H9.02417C7.9641 6.99146 7.10156 7.8839 7.10156 8.98074V36.7643C7.10156 37.8611 7.9641 38.7536 9.02417 38.7536H31.6037C32.6638 38.7536 33.5263 37.8611 33.5263 36.7643V23.6682C33.5263 23.1974 33.1574 22.8157 32.7023 22.8157C32.2473 22.8157 31.8783 23.1974 31.8783 23.6682V36.7643C31.8783 36.9209 31.7551 37.0485 31.6037 37.0485H27.5015L27.2779 35.3478C27.1068 34.0455 26.2647 32.9412 25.0803 32.466L23.4385 31.8071C24.8201 30.4551 25.7669 28.3571 25.9555 25.9334C26.1705 25.7653 26.3308 25.5213 26.3969 25.2317C26.6141 24.2821 26.9594 21.8765 25.4794 20.0542C25.2334 19.7514 24.4848 18.8298 23.1502 18.4891C22.712 18.3774 22.2584 18.3401 21.8014 18.379C21.284 18.4228 20.7361 18.3605 20.1731 18.1934C19.1581 17.8921 18.0926 17.8672 17.0917 18.1212C16.2924 18.3242 14.7902 18.8976 13.7119 20.4577C12.7794 21.8069 12.548 23.4808 13.0425 25.2981C13.1226 25.5925 13.3042 25.8373 13.5409 25.9967C13.7438 28.4243 14.709 30.5208 16.1079 31.8593L14.596 32.466C13.4117 32.9411 12.5696 34.0455 12.3984 35.3478L12.1748 37.0485H9.02417C8.87278 37.0485 8.74951 36.9209 8.74951 36.7643V8.98074C8.74951 8.8241 8.87278 8.69656 9.02417 8.69656H31.6037C31.7551 8.69656 31.8783 8.8241 31.8783 8.98074V25.3172C31.8783 25.788 32.2473 26.1698 32.7023 26.1698C33.1574 26.1698 33.5263 25.788 33.5263 25.3172V8.98074C33.5263 7.88379 32.6638 6.99146 31.6037 6.99146ZM15.0522 21.4495C15.8216 20.3363 16.9062 19.9239 17.4842 19.7772C17.8174 19.6926 18.1546 19.6503 18.4937 19.6503C18.9003 19.6503 19.3097 19.711 19.7186 19.8324C20.4737 20.0565 21.2195 20.139 21.9359 20.0784C22.215 20.0547 22.4904 20.077 22.7553 20.1447C23.5686 20.3522 24.0233 20.9121 24.2176 21.1513C25.0005 22.0838 25.0201 23.624 24.8725 24.4274C24.1096 24.2784 23.722 23.8266 23.1272 22.9598C22.718 22.3634 22.0791 21.9811 21.3745 21.9109C20.6746 21.8415 19.9816 22.0882 19.4742 22.5884C18.1517 23.8928 16.1252 24.4165 14.5438 24.4837C14.2991 23.312 14.4695 22.2927 15.0522 21.4495ZM15.2122 26.1419C16.6234 25.9994 18.9098 25.5007 20.6113 23.8227C20.8316 23.6055 21.0848 23.5952 21.2167 23.6081C21.4447 23.6308 21.6514 23.7543 21.7836 23.9468C22.4331 24.8934 23.0897 25.7117 24.291 26.0375C23.9535 29.2237 22.0115 31.7087 19.7455 31.7087C17.5065 31.7088 15.5809 29.2765 15.2122 26.1419ZM14.0312 35.5776C14.1216 34.8898 14.5663 34.3067 15.1917 34.0557L17.8094 33.0053C18.4191 33.2693 19.0694 33.4139 19.7455 33.4139C20.4549 33.4139 21.1358 33.2558 21.7709 32.9669L24.4846 34.0558C25.1099 34.3068 25.5546 34.8898 25.645 35.5777L25.8384 37.0486H13.8378L14.0312 35.5776Z" fill="#003595" stroke="#003595"/>
<path d="M51.8832 6.99146H38.9304C37.8703 6.99146 37.0078 7.8839 37.0078 8.98074V26.5948C37.0078 27.6916 37.8703 28.5841 38.9304 28.5841H51.8832C52.9432 28.5841 53.8058 27.6916 53.8058 26.5948V8.98074C53.8058 7.88379 52.9432 6.99146 51.8832 6.99146ZM51.8832 26.879H38.9304C38.779 26.879 38.6558 26.7515 38.6558 26.5948V23.3052H45.9974C46.4524 23.3052 46.8213 22.9235 46.8213 22.4527C46.8213 21.9818 46.4524 21.6001 45.9974 21.6001H38.6558V8.98074C38.6558 8.8241 38.779 8.69656 38.9304 8.69656H51.8832C52.0346 8.69656 52.1578 8.8241 52.1578 8.98074V21.6001H49.8402C49.3851 21.6001 49.0162 21.9818 49.0162 22.4527C49.0162 22.9235 49.3851 23.3052 49.8402 23.3052H52.1578V26.5948C52.1578 26.7515 52.0346 26.879 51.8832 26.879Z" fill="#003595" stroke="#003595"/>
<path d="M42.0994 13.386H46.763C47.218 13.386 47.5869 13.0043 47.5869 12.5335C47.5869 12.0626 47.218 11.6809 46.763 11.6809H42.0994C41.6443 11.6809 41.2754 12.0626 41.2754 12.5335C41.2754 13.0043 41.6443 13.386 42.0994 13.386Z" fill="#003595" stroke="#003595"/>
<path d="M50.4297 17.4392C50.4297 16.9684 50.0607 16.5867 49.6057 16.5867H42.0994C41.6443 16.5867 41.2754 16.9684 41.2754 17.4392C41.2754 17.9101 41.6443 18.2918 42.0994 18.2918H49.6057C50.0607 18.2918 50.4297 17.9101 50.4297 17.4392Z" fill="#003595" stroke="#003595"/>
<path d="M54.3005 32.6936C54.3005 32.2228 53.9316 31.8411 53.4765 31.8411H38.2283C37.7732 31.8411 37.4043 32.2228 37.4043 32.6936C37.4043 33.1644 37.7732 33.5462 38.2283 33.5462H53.4765C53.9316 33.5462 54.3005 33.1644 54.3005 32.6936Z" fill="#003595" stroke="#003595"/>
<path d="M53.3318 37.7783C53.3318 37.3075 52.9629 36.9258 52.5078 36.9258H39.1951C38.74 36.9258 38.3711 37.3075 38.3711 37.7783C38.3711 38.2492 38.74 38.6309 39.1951 38.6309H52.5078C52.9629 38.6309 53.3318 38.2492 53.3318 37.7783Z" fill="#003595" stroke="#003595"/>
</svg>
